<svg xmlns="http://www.w3.org/2000/svg" xmlns:xlink="http://www.w3.org/1999/xlink" aria-hidden="true" role="img" class="iconify iconify--logos" width="35.93" height="32" preserveAspectRatio="xMidYMid meet" viewBox="0 0 256 228"><path fill="#00D8FF" d="M218.771 164.208c-11.857-5.905-23.557-3.783-30.272 2.71c-3.34 3.222-5.241 7.503-5.71 12.04c-2.205-5.886-6.24-10.452-12.05-12.05c-8.445-2.38-17.31 2.05-20.87 10.17c-3.56 8.12-.25 17.56 7.56 21.72c11.857 5.905 23.557 3.783 30.272-2.71c3.34-3.222 5.241-7.503 5.71-12.04c2.205 5.886 6.24 10.452 12.05 12.05c8.445 2.38 17.31-2.05 20.87-10.17c3.56-8.12.25-17.56-7.56-21.72Zm-90.771 7.784c-8.445-2.38-17.31 2.05-20.87 10.17c-3.56 8.12-.25 17.56 7.56 21.72c11.857 5.905 23.557 3.783 30.272-2.71c3.34-3.222 5.241-7.503 5.71-12.04c2.205 5.886 6.24 10.452 12.05 12.05c8.445 2.38 17.31-2.05 20.87-10.17c3.56-8.12.25-17.56-7.56-21.72c-11.857-5.905-23.557-3.783-30.272 2.71c-3.34 3.222-5.241 7.503-5.71 12.04c-2.205-5.886-6.24-10.452-12.05-12.05Zm128-63.784c11.857 5.905 23.557 3.783 30.272-2.71c3.34-3.222 5.241-7.503 5.71-12.04c2.205 5.886 6.24 10.452 12.05 12.05c8.445 2.38 17.31-2.05 20.87-10.17c3.56-8.12.25-17.56-7.56-21.72c-11.857-5.905-23.557-3.783-30.272 2.71c-3.34 3.222-5.241 7.503-5.71 12.04c-2.205-5.886-6.24-10.452-12.05-12.05c-8.445-2.38-17.31 2.05-20.87 10.17c-3.56 8.12-.25 17.56 7.56 21.72Zm-181.771 21.72c-7.81-4.16-11.12-13.6-7.56-21.72c3.56-8.12 12.425-12.55 20.87-10.17c5.81 1.598 9.845 6.164 12.05 12.05c-.469-4.537-2.37-8.818-5.71-12.04c-6.715-6.493-18.415-8.615-30.272-2.71c-7.81 4.16-11.12 13.6-7.56 21.72c3.56 8.12 12.425 12.55 20.87 10.17c5.81-1.598 9.845-6.164 12.05-12.05c-.469 4.537-2.37 8.818-5.71 12.04c-6.715 6.493-18.415 8.615-30.272 2.71c7.81 4.16 11.12 13.6 7.56 21.72c-3.56 8.12-12.425 12.55-20.87 10.17c-5.81-1.598-9.845-6.164-12.05-12.05c.469 4.537 2.37 8.818 5.71 12.04c6.715 6.493 18.415 8.615 30.272 2.71c7.81-4.16 11.12-13.6 7.56-21.72c-3.56-8.12-12.425-12.55-20.87-10.17Z"/></svg>